<svg xmlns="http://www.w3.org/2000/svg" viewBox="0 -0.5 16 42" shape-rendering="crispEdges">
<path stroke="#686c63" d="M0 0h1M1 1h1M2 2h1M3 3h1M4 4h1M5 5h1M7 5h1M6 6h2" />
<path stroke="#a7aa9a" d="M1 0h1M2 1h1M3 2h1M4 3h1M5 4h1M6 5h1M11 5h1M4 13h1M3 14h1" />
<path stroke="#747b71" d="M2 0h1M3 1h1M4 2h1M5 3h1" />
<path stroke="#303e3e" d="M0 1h1M0 2h2M1 3h2M1 4h3M2 5h3M3 6h3M4 7h2M5 8h2M6 9h1M6 10h1M6 11h1M6 12h1M5 13h1M4 14h2M0 15h6M2 16h4M4 17h1M4 18h1M8 18h1M5 19h1M8 35h1M8 36h2M9 37h1M9 38h1M9 39h1" />
<path stroke="#7b7f75" d="M6 4h1M10 5h1M11 6h1" />
<path stroke="#555d5a" d="M2 6h1M12 6h2M3 7h1M15 7h1M2 8h1M4 8h1M2 9h1M4 9h1M2 10h1M4 10h1M2 11h1M4 11h1M2 12h1M2 13h1M0 16h2M2 17h2M3 18h1M3 19h2M4 20h1M9 35h2M10 40h1M10 41h1" />
<path stroke="#393f3e" d="M9 6h2M11 7h4M9 8h1M5 9h1M5 10h1M5 11h1M5 12h1" />
<path stroke="#707669" d="M2 7h1M3 8h1M3 10h1M3 11h1M3 12h1M9 40h1M9 41h1" />
<path stroke="#252f33" d="M6 7h2M9 7h2M7 8h1M10 8h2M7 9h1M8 10h1M7 11h1M8 12h1M6 13h1M6 14h1M10 14h1M6 15h1M10 15h1M6 16h1M5 17h1M8 17h1M10 17h1M5 18h1M9 18h1M11 35h1M10 36h2M10 37h1M10 38h1M10 39h1" />
<path stroke="#6e7668" d="M3 9h1" />
<path stroke="#312423" d="M8 9h3M11 10h1M8 11h3M11 12h1M8 13h3M7 14h1M9 29h1M9 30h1M9 31h1M9 32h1M9 33h1M9 34h1" />
<path stroke="#6d4426" d="M7 10h1M9 10h1M7 12h1M9 12h1M7 13h1M9 14h1M9 15h1M9 25h1M9 26h1M9 27h1M9 28h1" />
<path stroke="#5f310e" d="M10 10h1M10 12h1M10 19h1M10 22h1M10 25h1M10 26h1M10 27h1M10 28h1" />
<path stroke="#849484" d="M4 12h1M3 13h1M1 14h2" />
<path stroke="#4c1310" d="M8 16h2M11 16h1M10 18h1M9 19h1M10 20h1M10 21h1M9 22h1M10 23h1M8 24h3" />
<path stroke="#852618" d="M10 16h1M9 17h1M9 20h1M9 21h1M9 23h1" />
<path stroke="#271918" d="M10 29h1M10 30h1M10 31h1M10 32h1M10 33h1M10 34h1" />
</svg>