<svg xmlns="http://www.w3.org/2000/svg" viewBox="0 -0.5 59 150" shape-rendering="crispEdges">
<path stroke="#175a84" d="M13 0h13M33 0h13M13 1h13M33 1h13M13 2h13M33 2h13M13 3h13M33 3h13M13 4h13M33 4h13M13 5h13M33 5h13M13 6h13M33 6h13M7 7h6M20 7h6M33 7h6M46 7h6M7 8h6M20 8h6M33 8h6M46 8h6M7 9h6M20 9h6M33 9h6M46 9h6M7 10h6M20 10h6M33 10h6M46 10h6M7 11h6M20 11h6M33 11h6M46 11h6M7 12h6M20 12h6M33 12h6M46 12h6M0 13h7M13 13h7M39 13h7M52 13h6M0 14h7M13 14h7M39 14h7M52 14h6M0 15h7M13 15h7M39 15h7M52 15h6M0 16h7M13 16h7M39 16h7M52 16h6M0 17h7M13 17h7M39 17h7M52 17h6M0 18h7M13 18h7M39 18h7M52 18h6M0 19h7M13 19h7M39 19h7M52 19h6M0 20h7M13 20h7M26 20h7M39 20h7M52 20h6M0 21h7M13 21h7M26 21h7M39 21h7M52 21h6M0 22h7M13 22h7M26 22h7M39 22h7M52 22h6M0 23h7M13 23h7M26 23h7M39 23h7M52 23h6M0 24h7M13 24h7M26 24h7M39 24h7M52 24h6M0 25h7M13 25h7M26 25h7M39 25h7M52 25h6M7 26h6M20 26h6M33 26h6M46 26h6M7 27h6M20 27h6M33 27h6M46 27h6M7 28h6M20 28h6M33 28h6M46 28h6M7 29h6M20 29h6M33 29h6M46 29h6M7 30h6M20 30h6M33 30h6M46 30h6M7 31h6M20 31h6M33 31h6M46 31h6M7 32h6M20 32h6M33 32h6M46 32h6M13 33h7M39 33h7M13 34h7M39 34h7M13 35h7M39 35h7M13 36h7M39 36h7M13 37h7M39 37h7M13 38h7M39 38h7M20 39h6M33 39h6M20 40h6M33 40h6M20 41h6M33 41h6M20 42h6M33 42h6M20 43h6M33 43h6M20 44h6M33 44h6M20 45h6M33 45h6M13 46h7M39 46h7M13 47h7M39 47h7M13 48h7M39 48h7M13 49h7M39 49h7M13 50h7M39 50h7M13 51h7M39 51h7M20 52h19M20 53h19M20 54h19M20 55h19M20 56h19M20 57h19M20 58h19M20 59h6M33 59h6M20 60h6M33 60h6M20 61h6M33 61h6M20 62h6M33 62h6M20 63h6M33 63h6M20 64h6M33 64h6M7 65h19M33 65h19M7 66h19M33 66h19M7 67h19M33 67h19M7 68h19M33 68h19M7 69h19M33 69h19M7 70h19M33 70h19M7 71h19M33 71h19M7 72h6M20 72h6M33 72h6M46 72h6M7 73h6M20 73h6M33 73h6M46 73h6M7 74h6M20 74h6M33 74h6M46 74h6M7 75h6M20 75h6M33 75h6M46 75h6M7 76h6M20 76h6M33 76h6M46 76h6M7 77h6M20 77h6M33 77h6M46 77h6M13 78h7M39 78h7M13 79h7M39 79h7M13 80h7M39 80h7M13 81h7M39 81h7M13 82h7M39 82h7M13 83h7M39 83h7M13 84h7M39 84h7M13 85h13M33 85h13M13 86h13M33 86h13M13 87h13M33 87h13M13 88h13M33 88h13M13 89h13M33 89h13M13 90h13M33 90h13M20 91h6M33 91h6M20 92h6M33 92h6M20 93h6M33 93h6M20 94h6M33 94h6M20 95h6M33 95h6M20 96h6M33 96h6M20 97h6M33 97h6M20 98h6M33 98h6M20 99h6M33 99h6M20 100h6M33 100h6M20 101h6M33 101h6M20 102h6M33 102h6M20 103h6M33 103h6M20 104h6M33 104h6M20 105h6M33 105h6M20 106h6M33 106h6M20 107h6M33 107h6M20 108h6M33 108h6M20 109h6M33 109h6M20 110h6M33 110h6M20 111h6M33 111h6M20 112h6M33 112h6M20 113h6M33 113h6M20 114h6M33 114h6M20 115h6M33 115h6M20 116h6M33 116h6M20 117h6M33 117h6M20 118h6M33 118h6M20 119h6M33 119h6M20 120h6M33 120h6M20 121h6M33 121h6M20 122h6M33 122h6M20 123h6M33 123h6M13 124h13M33 124h13M13 125h13M33 125h13M13 126h13M33 126h13M13 127h13M33 127h13M13 128h13M33 128h13M13 129h13M33 129h13M13 130h7M39 130h7M13 131h7M39 131h7M13 132h7M39 132h7M13 133h7M39 133h7M13 134h7M39 134h7M13 135h7M39 135h7M13 136h7M39 136h7M20 137h6M33 137h6M20 138h6M33 138h6M20 139h6M33 139h6M20 140h6M33 140h6M20 141h6M33 141h6M20 142h6M33 142h6M26 143h7M26 144h7M26 145h7M26 146h7M26 147h7M26 148h7M26 149h7" />
<path stroke="#d5fffe" d="M13 7h7M39 7h7M13 8h7M39 8h7M13 9h7M39 9h7M13 10h7M39 10h7M13 11h7M39 11h7M13 12h7M39 12h7M26 33h7M26 34h7M26 35h7M26 36h7M26 37h7M26 38h7M13 72h7M39 72h7M13 73h7M39 73h7M13 74h7M39 74h7M13 75h7M39 75h7M13 76h7M39 76h7M13 77h7M39 77h7" />
<path stroke="#84d8ef" d="M7 13h6M46 13h6M7 14h6M46 14h6M7 15h6M46 15h6M7 16h6M46 16h6M7 17h6M46 17h6M7 18h6M46 18h6M7 19h6M46 19h6M7 20h6M46 20h6M7 21h6M46 21h6M7 22h6M46 22h6M7 23h6M46 23h6M7 24h6M46 24h6M7 25h6M46 25h6M26 26h7M26 27h7M26 28h7M26 29h7M26 30h7M26 31h7M26 32h7M26 39h7M26 40h7M26 41h7M26 42h7M26 43h7M26 44h7M26 45h7M20 46h6M33 46h6M20 47h6M33 47h6M20 48h6M33 48h6M20 49h6M33 49h6M20 50h6M33 50h6M20 51h6M33 51h6M26 72h7M26 73h7M26 74h7M26 75h7M26 76h7M26 77h7M20 78h6M33 78h6M20 79h6M33 79h6M20 80h6M33 80h6M20 81h6M33 81h6M20 82h6M33 82h6M20 83h6M33 83h6M20 84h6M33 84h6M26 85h7M26 86h7M26 87h7M26 88h7M26 89h7M26 90h7" />
<path stroke="rgba(23,91,133,0.6941176470588235)" d="M58 13h1M58 14h1M58 15h1M58 16h1M58 17h1M58 18h1M58 19h1M58 20h1M58 21h1M58 22h1M58 23h1M58 24h1M58 25h1" />
<path stroke="#4896c7" d="M13 26h7M39 26h7M13 27h7M39 27h7M13 28h7M39 28h7M13 29h7M39 29h7M13 30h7M39 30h7M13 31h7M39 31h7M13 32h7M39 32h7M20 33h6M33 33h6M20 34h6M33 34h6M20 35h6M33 35h6M20 36h6M33 36h6M20 37h6M33 37h6M20 38h6M33 38h6M26 46h7M26 47h7M26 48h7M26 49h7M26 50h7M26 51h7M26 59h7M26 60h7M26 61h7M26 62h7M26 63h7M26 64h7M26 65h7M26 66h7M26 67h7M26 68h7M26 69h7M26 70h7M26 71h7M26 78h7M26 79h7M26 80h7M26 81h7M26 82h7M26 83h7M26 84h7M26 91h7M26 92h7M26 93h7M26 94h7M26 95h7M26 96h7M26 97h7M26 98h7M26 99h7M26 100h7M26 101h7M26 102h7M26 103h7M26 104h7M26 105h7M26 106h7M26 107h7M26 108h7M26 109h7M26 110h7M26 111h7M26 112h7M26 113h7M26 114h7M26 115h7M26 116h7M26 117h7M26 118h7M26 119h7M26 120h7M26 121h7M26 122h7M26 123h7M26 124h7M26 125h7M26 126h7M26 127h7M26 128h7M26 129h7M20 130h19M20 131h19M20 132h19M20 133h19M20 134h19M20 135h19M20 136h19M26 137h7M26 138h7M26 139h7M26 140h7M26 141h7M26 142h7" />
</svg>