<svg xmlns="http://www.w3.org/2000/svg" viewBox="0 -0.5 7 13" shape-rendering="crispEdges">
<metadata>Made with Pixels to Svg https://codepen.io/shshaw/pen/XbxvNj</metadata>
<path stroke="#931b1b" d="M2 0h3M1 1h1M3 1h1M5 1h1" />
<path stroke="#6c1010" d="M5 0h1M2 1h1M4 1h1M6 1h1" />
<path stroke="#32313a" d="M1 2h1M3 2h1M5 2h1M5 3h1" />
<path stroke="#490707" d="M2 2h1M4 2h1M6 2h1" />
<path stroke="#696b76" d="M1 3h1M3 3h1M1 4h1M3 4h1M5 4h1M5 5h1" />
<path stroke="#818591" d="M1 5h1M3 5h1M5 6h1M1 11h1M3 12h1" />
<path stroke="#a7b4cd" d="M1 6h1M3 6h1M3 7h1M5 7h1M0 8h1M5 8h1M2 10h1M4 11h1" />
<path stroke="#d7e6f6" d="M1 7h1M3 8h1M2 9h1M5 9h1M4 10h1" />
</svg>